LG_Stand_to_Walk01																		
version=1																		
nRows=108																		
nColumns=19																		
inDegrees=yes																		
endheader																		
time	ground_force2_vx	ground_force2_vy	ground_force2_vz	ground_force2_px	ground_force2_py	ground_force2_pz	ground_torque2_x	ground_torque2_y	ground_torque2_z	ground_force1_vx	ground_force1_vy	ground_force1_vz	ground_force1_px	ground_force1_py	ground_force1_pz	ground_torque1_x	ground_torque1_y	ground_torque1_z
5.03	0	0	0	0.2	0	-0.3	0	0	0	60.265068	765.47937	111.09417	-0.136738	0	0.340011	-2.10E-05	-0.633473	0
5.031	0	0	0	0.2	0	-0.3	0	0	0	61.119987	765.47937	111.486031	-0.136565	0	0.340011	-1.80E-05	-0.613046	-1.00E-06
5.032	0	0	0	0.2	0	-0.3	0	0	0	61.904266	759.808105	114.463554	-0.136133	0	0.340033	-1.20E-05	-0.584616	-4.00E-06
5.033	0	0	0	0.2	0	-0.3	0	0	0	61.904266	759.09259	114.855286	-0.135849	0	0.34054	-1.20E-05	-0.584616	-8.00E-06
5.034	0	0	0	0.2	0	-0.3	0	0	0	61.27713	758.407166	115.090279	-0.135849	0	0.34054	-2.40E-05	-0.584616	-8.00E-06
5.035	0	0	0	0.2	0	-0.3	0	0	0	60.732899	757.382263	115.090279	-0.135875	0	0.340302	-2.40E-05	-0.580932	-8.00E-06
5.036	0	0	0	0.2	0	-0.3	0	0	0	60.732899	757.382263	117.127434	-0.135914	0	0.340302	-2.80E-05	-0.555261	-1.00E-05
5.037	0	0	0	0.2	0	-0.3	0	0	0	61.280018	760.640869	119.164635	-0.135875	0	0.34048	-1.70E-05	-0.580932	-1.00E-05
5.038	0	0	0	0.2	0	-0.3	0	0	0	61.280018	760.640869	119.634857	-0.135771	0	0.340631	-1.70E-05	-0.525083	-4.00E-06
5.039	0	0	0	0.2	0	-0.3	0	0	0	61.19928	756.513611	119.634857	-0.135771	0	0.340845	-1.70E-05	-0.555769	-4.00E-06
5.04	0	0	0	0.2	0	-0.3	0	0	0	60.569977	755.299316	119.869972	-0.135778	0	0.340845	-1.70E-05	-0.555769	-2.00E-06
5.041	0	0	0	0.2	0	-0.3	0	0	0	59.945728	748.792603	120.261826	-0.135827	0	0.340734	-1.50E-05	-0.575964	2.00E-06
5.042	0	0	0	0.2	0	-0.3	0	0	0	60.569977	748.792603	120.888664	-0.136042	0	0.340734	-1.10E-05	-0.575964	2.00E-06
5.043	0	0	0	0.2	0	-0.3	0	0	0	59.790028	748.792603	121.515678	-0.136042	0	0.341626	-9.00E-06	-0.402132	-9.00E-06
5.044	0	0	0	0.2	0	-0.3	0	0	0	59.790028	748.761658	122.456001	-0.13576	0	0.341761	-9.00E-06	-0.356212	-9.00E-06
5.045	0	0	0	0.2	0	-0.3	0	0	0	59.242905	748.761658	122.456001	-0.13576	0	0.341761	-9.00E-06	-0.353415	-5.00E-06
5.046	0	0	0	0.2	0	-0.3	0	0	0	59.242184	748.094788	122.377708	-0.13576	0	0.341761	-1.70E-05	-0.353415	-5.00E-06
5.047	0	0	0	0.2	0	-0.3	0	0	0	58.297867	746.888611	122.377708	-0.135891	0	0.341685	-1.70E-05	-0.391142	-1.00E-06
5.048	0	0	0	0.2	0	-0.3	0	0	0	58.055656	745.366516	122.535133	-0.136091	0	0.342208	-1.70E-05	-0.391142	-7.00E-06
5.049	0	0	0	0.2	0	-0.3	0	0	0	58.055656	743.113586	123.005806	-0.136091	0	0.342209	-1.80E-05	-0.296498	-3.00E-06
5.05	0	0	0	0.2	0	-0.3	0	0	0	58.055656	742.073547	123.005806	-0.135835	0	0.342931	-1.80E-05	-0.296498	-4.00E-06
5.051	0	0	0	0.2	0	-0.3	0	0	0	56.327782	738.983582	124.103722	-0.135835	0	0.342931	-1.50E-05	-0.214326	-3.00E-06
5.052	0	0	0	0.2	0	-0.3	0	0	0	56.010605	733.170227	122.928886	-0.135647	0	0.34259	-1.20E-05	-0.267737	-4.00E-06
5.053	0	0	0	0.2	0	-0.3	0	0	0	56.010605	732.637268	123.869331	-0.135641	0	0.342489	-1.50E-05	-0.267737	-3.00E-06
5.054	0	0	0	0.2	0	-0.3	0	0	0	56.010605	732.307434	123.869331	-0.135625	0	0.342489	-1.80E-05	-0.302215	-6.00E-06
5.055	0	0	0	0.2	0	-0.3	0	0	0	55.769836	731.939758	123.869331	-0.135641	0	0.343376	-1.80E-05	-0.302215	-3.00E-06
5.056	0	0	0	0.2	0	-0.3	0	0	0	55.454105	730.734802	124.183495	-0.13559	0	0.343376	-8.00E-06	-0.310716	-6.00E-06
5.057	0	0	0	0.2	0	-0.3	0	0	0	54.904819	726.60144	124.183495	-0.135648	0	0.342934	-3.00E-06	-0.259043	-3.00E-06
5.058	0	0	0	0.2	0	-0.3	0	0	0	54.043407	724.203003	124.967407	-0.135492	0	0.342934	-8.00E-06	-0.180909	-5.00E-06
5.059	0	0	0	0.2	0	-0.3	0	0	0	53.334808	722.66864	125.046616	-0.135492	0	0.34279	-1.60E-05	-0.173969	-5.00E-06
5.06	0	0	0	0.2	0	-0.3	0	0	0	53.334808	718.882751	125.751396	-0.135488	0	0.342979	-2.00E-05	-0.156125	-5.00E-06
5.061	0	0	0	0.2	0	-0.3	0	0	0	52.774704	718.882751	126.535667	-0.135488	0	0.34297	-1.60E-05	-0.156125	-2.00E-06
5.062	0	0	0	0.2	0	-0.3	0	0	0	52.85688	714.741211	126.53611	-0.135103	0	0.343767	-1.20E-05	-0.156125	-2.00E-06
5.063	0	0	0	0.2	0	-0.3	0	0	0	52.774704	712.507507	126.53611	-0.135612	0	0.34376	-1.20E-05	-0.190912	-5.00E-06
5.064	0	0	0	0.2	0	-0.3	0	0	0	51.365444	706.170776	126.928322	-0.135612	0	0.343767	-1.20E-05	-0.046021	-5.00E-06
5.065	0	0	0	0.2	0	-0.3	0	0	0	51.361832	706.170776	127.554848	-0.135612	0	0.344374	-1.00E-05	-0.111113	-5.00E-06
5.066	0	0	0	0.2	0	-0.3	0	0	0	51.361832	705.651917	127.946983	-0.135507	0	0.344481	-1.00E-05	-0.111113	-4.00E-06
5.067	0	0	0	0.2	0	-0.3	0	0	0	50.342556	704.956421	128.103836	-0.135507	0	0.344893	-1.20E-05	-0.111113	-4.00E-06
5.068	0	0	0	0.2	0	-0.3	0	0	0	50.187572	701.533081	128.104004	-0.135137	0	0.345097	-1.40E-05	-0.091477	-4.00E-06
5.069	0	0	0	0.2	0	-0.3	0	0	0	50.106117	695.684021	128.339264	-0.13526	0	0.345345	-1.50E-05	-0.060273	-7.00E-06
5.07	0	0	0	0.2	0	-0.3	0	0	0	49.481144	695.537476	128.339264	-0.135137	0	0.345345	-2.10E-05	0.014951	-7.00E-06
5.071	0	0	0	0.2	0	-0.3	0	0	0	49.012592	689.325684	129.671448	-0.13526	0	0.345345	-2.10E-05	0.039545	-4.00E-06
5.072	0	0	0	0.2	0	-0.3	0	0	0	48.308331	689.325684	128.966431	-0.135525	0	0.346044	-1.00E-05	0.018923	-4.00E-06
5.073	0	0	0	0.2	0	-0.3	0	0	0	48.149017	686.755981	129.436584	-0.135525	0	0.346044	-9.00E-06	0.087297	-4.00E-06
5.074	0	0	0	0.2	0	-0.3	0	0	0	47.604782	685.563782	129.279755	-0.135409	0	0.346044	-5.00E-06	0.018923	-6.00E-06
5.075	0	0	0	0.2	0	-0.3	0	0	0	46.820503	680.561707	129.436584	-0.135285	0	0.346132	-5.00E-06	0.087297	-8.00E-06
5.076	0	0	0	0.2	0	-0.3	0	0	0	45.49559	673.868958	129.279755	-0.135258	0	0.346132	-9.00E-06	0.075788	-8.00E-06
5.077	0	0	0	0.2	0	-0.3	0	0	0	45.494152	673.868958	129.436859	-0.135235	0	0.346132	-1.40E-05	0.10171	-6.00E-06
5.078	0	0	0	0.2	0	-0.3	0	0	0	44.946304	672.498108	129.201874	-0.135235	0	0.346192	-9.00E-06	0.16058	2.00E-06
5.079	0	0	0	0.2	0	-0.3	0	0	0	44.478477	669.914917	129.35849	-0.134851	0	0.346587	-1.30E-05	0.16058	2.00E-06
5.08	0	0	0	0.2	0	-0.3	0	0	0	44.402073	667.171631	129.35849	-0.134661	0	0.346192	-1.10E-05	0.16058	2.00E-06
5.081	0	0	0	0.2	0	-0.3	0	0	0	42.914967	659.270142	129.907089	-0.134851	0	0.346587	-1.30E-05	0.247138	-1.00E-06
5.082	0	0	0	0.2	0	-0.3	0	0	0	42.135735	658.0578	130.220612	-0.134999	0	0.34671	-1.50E-05	0.294224	-1.00E-06
5.083	0	0	0	0.2	0	-0.3	0	0	0	41.585724	655.842468	130.612473	-0.135035	0	0.347292	-1.50E-05	0.294224	-6.00E-06
5.084	0	0	0	0.2	0	-0.3	0	0	0	41.346401	653.774719	130.612473	-0.135035	0	0.347526	-1.50E-05	0.294224	-6.00E-06
5.085	0	0	0	0.2	0	-0.3	0	0	0	40.020046	648.440857	130.221054	-0.134822	0	0.347526	-1.50E-05	0.302247	-3.00E-06
5.086	0	0	0	0.2	0	-0.3	0	0	0	38.842899	643.986938	130.221054	-0.134772	0	0.347618	-1.00E-06	0.302247	-3.00E-06
5.087	0	0	0	0.2	0	-0.3	0	0	0	37.981491	639.165771	130.221588	-0.13466	0	0.347821	-1.90E-05	0.302247	-4.00E-06
5.088	0	0	0	0.2	0	-0.3	0	0	0	36.729382	633.831604	130.457214	-0.13466	0	0.347855	-1.00E-06	0.329356	-4.00E-06
5.089	0	0	0	0.2	0	-0.3	0	0	0	36.650089	630.076965	130.848755	-0.135178	0	0.347985	-1.80E-05	0.465629	-5.00E-06
5.09	0	0	0	0.2	0	-0.3	0	0	0	36.647198	627.664917	130.457214	-0.135178	0	0.348555	-5.00E-06	0.465629	-2.00E-06
5.091	0	0	0	0.2	0	-0.3	0	0	0	34.535122	626.981445	129.439484	-0.134899	0	0.348558	-1.50E-05	0.438296	0
5.092	0	0	0	0.2	0	-0.3	0	0	0	34.138653	615.464111	129.283264	-0.134899	0	0.348658	-5.00E-06	0.438296	0
5.093	0	0	0	0.2	0	-0.3	0	0	0	32.887985	612.388306	129.439484	-0.134936	0	0.348663	-1.30E-05	0.571331	0
5.094	0	0	0	0.2	0	-0.3	0	0	0	32.572975	609.636597	129.283264	-0.135094	0	0.34877	-1.30E-05	0.572818	-7.00E-06
5.095	0	0	0	0.2	0	-0.3	0	0	0	31.866545	605.005249	129.51857	-0.134984	0	0.349016	-1.30E-05	0.571331	-7.00E-06
5.096	0	0	0	0.2	0	-0.3	0	0	0	31.315815	602.255798	129.362762	-0.134984	0	0.349067	-3.00E-06	0.599747	-4.00E-06
5.097	0	0	0	0.2	0	-0.3	0	0	0	30.532974	597.266785	129.362762	-0.134847	0	0.349127	-3.00E-06	0.629361	-4.00E-06
5.098	0	0	0	0.2	0	-0.3	0	0	0	29.82943	589.546936	128.736023	-0.134847	0	0.349625	-3.00E-06	0.629361	-4.00E-06
5.099	0	0	0	0.2	0	-0.3	0	0	0	28.495863	584.908997	128.344742	-0.134847	0	0.349625	-1.00E-05	0.590269	-4.00E-06
5.1	0	0	0	0.2	0	-0.3	0	0	0	28.495863	582.673706	128.344742	-0.134882	0	0.349625	-6.00E-06	0.564147	-4.00E-06
5.101	0	0	0	0.2	0	-0.3	0	0	0	28.339439	573.077637	128.344742	-0.13452	0	0.350104	-1.00E-05	0.590269	-4.00E-06
5.102	0	0	0	0.2	0	-0.3	0	0	0	27.868004	570.141479	128.032074	-0.134669	0	0.350188	-1.10E-05	0.670462	-6.00E-06
5.103	0	0	0	0.2	0	-0.3	0	0	0	27.159407	564.803772	127.797073	-0.134462	0	0.351413	-1.10E-05	0.670462	-3.00E-06
5.104	0	0	0	0.2	0	-0.3	0	0	0	27.07795	554.328735	126.935516	-0.134669	0	0.351413	-4.00E-06	0.670462	-7.00E-06
5.105	0	0	0	0.2	0	-0.3	0	0	0	25.592285	548.002869	126.701012	-0.134869	0	0.351007	-4.00E-06	0.784936	-5.00E-06
5.106	0	0	0	0.2	0	-0.3	0	0	0	25.437307	547.64032	126.387329	-0.134922	0	0.351007	-8.00E-06	0.869663	-5.00E-06
5.107	0	0	0	0.2	0	-0.3	0	0	0	24.885855	541.622986	125.917618	-0.134922	0	0.352259	-1.30E-05	0.869663	-5.00E-06
5.108	0	0	0	0.2	0	-0.3	0	0	0	24.730875	535.616516	125.682755	-0.134816	0	0.352259	-1.30E-05	0.837256	-5.00E-06
5.109	0	0	0	0.2	0	-0.3	0	0	0	24.103014	529.446411	125.134315	-0.134788	0	0.352259	-1.30E-05	0.837256	-5.00E-06
5.11	0	0	0	0.2	0	-0.3	0	0	0	23.006605	521.017151	124.429581	-0.134816	0	0.352257	-8.00E-06	0.918755	-5.00E-06
5.111	0	0	0	0.2	0	-0.3	0	0	0	22.770887	519.841919	122.941544	-0.134788	0	0.352972	-8.00E-06	0.926829	-5.00E-06
5.112	0	0	0	0.2	0	-0.3	0	0	0	22.139421	512.625	122.314781	-0.134954	0	0.352972	-8.00E-06	0.937769	-6.00E-06
5.113	0	0	0	0.2	0	-0.3	0	0	0	22.139421	508.156677	122.314781	-0.134766	0	0.353696	-5.00E-06	1.080461	-6.00E-06
5.114	0	0	0	0.2	0	-0.3	0	0	0	21.047342	500.596893	121.061455	-0.135016	0	0.353696	-5.00E-06	1.080228	-8.00E-06
5.115	0	0	0	0.2	0	-0.3	0	0	0	20.420927	492.539185	120.904831	-0.134766	0	0.353696	-3.00E-06	1.080461	-8.00E-06
5.116	0	0	0	0.2	0	-0.3	0	0	0	19.638809	487.894592	119.729752	-0.134965	0	0.354301	-3.00E-06	1.080228	0
5.117	0	0	0	0.2	0	-0.3	0	0	0	18.697382	479.139465	119.103149	-0.134938	0	0.354301	-3.00E-06	1.105523	0
5.118	0	0	0	0.2	0	-0.3	0	0	0	18.619532	477.610443	117.849899	-0.134938	0	0.354514	-5.00E-06	1.053256	1.00E-06
5.119	0	0	0	0.2	0	-0.3	0	0	0	18.381649	474.840515	117.06636	-0.134466	0	0.355358	-6.00E-06	1.039782	-4.00E-06
5.12	0	0	0	0.2	0	-0.3	0	0	0	18.145931	463.683105	116.67482	-0.134466	0	0.355358	-5.00E-06	1.032177	-4.00E-06
5.121	0	0	0	0.2	0	-0.3	0	0	0	17.518072	453.381195	115.578079	-0.134485	0	0.355358	-4.00E-06	1.039782	-4.00E-06
5.122	0	0	0	0.2	0	-0.3	0	0	0	16.65955	450.129517	114.01162	-0.134485	0	0.355918	-4.00E-06	1.193885	-2.00E-06
5.123	0	0	0	0.2	0	-0.3	0	0	0	15.721006	441.531708	113.776352	-0.134485	0	0.356553	0	1.254346	-2.00E-06
5.124	0	0	0	0.2	0	-0.3	0	0	0	15.407438	435.029144	113.149902	-0.134696	0	0.356955	0	1.290442	-2.00E-06
5.125	0	0	0	0.2	0	-0.3	0	0	0	14.935281	431.740845	112.209938	-0.134696	0	0.358216	0	1.290442	-3.00E-06
5.126	0	0	0	0.2	0	-0.3	0	0	0	14.305981	421.444336	110.721497	-0.134696	0	0.358216	-7.00E-06	1.290442	-3.00E-06
5.127	0	0	0	0.2	0	-0.3	0	0	0	13.055314	412.35437	109.311546	-0.13505	0	0.358216	-7.00E-06	1.340234	-2.00E-06
5.128	0	0	0	0.2	0	-0.3	0	0	0	12.585321	408.060455	109.076721	-0.13505	0	0.358828	-7.00E-06	1.42219	-1.00E-06
5.129	0	0	0	0.2	0	-0.3	0	0	0	12.506026	400.335205	108.371742	-0.135606	0	0.359476	-5.00E-06	1.473772	-2.00E-06
5.13	0	0	0	0.2	0	-0.3	0	0	0	12.191736	393.144836	107.275078	-0.136165	0	0.359669	-1.00E-06	1.42219	-2.00E-06
5.131	0	0	0	0.2	0	-0.3	0	0	0	10.702467	392.272736	105.472954	-0.136165	0	0.359742	-1.00E-06	1.352007	-2.00E-06
5.132	0	0	0	0.2	0	-0.3	0	0	0	10.620287	380.950592	104.533066	-0.136111	0	0.359797	-9.00E-06	1.352007	-2.00E-06
5.133	0	0	0	0.2	0	-0.3	0	0	0	9.292492	371.8479	103.514687	-0.135977	0	0.36006	-9.00E-06	1.380968	-2.00E-06
5.134	0	0	0	0.2	0	-0.3	0	0	0	8.978924	366.013824	101.321312	-0.13558	0	0.360387	-9.00E-06	1.466376	-2.00E-06
5.135	0	0	0	0.2	0	-0.3	0	0	0	8.588226	359.82254	100.537926	-0.13558	0	0.362072	-1.20E-05	1.471515	-4.00E-06
5.136	0	0	0	0.2	0	-0.3	0	0	0	8.037495	354.331726	99.049408	-0.13558	0	0.362777	-1.20E-05	1.531705	-5.00E-06
5.137	0	0	0	0.2	0	-0.3	0	0	0	7.882515	347.124084	97.012611	-0.135374	0	0.362927	2.00E-06	1.471515	-5.00E-06
